<svg xmlns="http://www.w3.org/2000/svg" viewBox="0 0 163 81.09"><defs><style>.custom-cls-1{fill:#ccc;}.cls-2{fill:#cccccb;}.cls-3{fill:#f8f8f8;}.cls-4{fill:none;}.cls-5{fill:#000;}</style></defs><g id="Layer_2" data-name="Layer 2"><g id="Layer_1-2" data-name="Layer 1"><path class="custom-cls-1" d="M35.5,5.26A2.5,2.5,0,1,1,38,2.76,2.5,2.5,0,0,1,35.5,5.26Zm0-4A1.5,1.5,0,1,0,37,2.76,1.5,1.5,0,0,0,35.5,1.26Z"></path><path class="custom-cls-1" d="M138.49,32.76a3,3,0,1,1,3-3A3,3,0,0,1,138.49,32.76Zm0-5a2,2,0,1,0,2,2A2,2,0,0,0,138.49,27.76Z"></path><path class="cls-2" d="M159,39.76h-1.5v-1.5a1,1,0,1,0-2,0v1.5H154a1,1,0,0,0,0,2h1.5v1.5a1,1,0,0,0,2,0v-1.5H159a1,1,0,0,0,0-2Z"></path><path class="cls-2" d="M132.49,6.76h-3v-3a1,1,0,0,0-2,0v3h-3a1,1,0,0,0,0,2h3v3a1,1,0,1,0,2,0v-3h3a1,1,0,0,0,0-2Z"></path><path class="cls-2" d="M31.5,26.76h-3v-3a1,1,0,0,0-2,0v3h-3a1,1,0,0,0,0,2h3v3a1,1,0,1,0,2,0v-3h3a1,1,0,0,0,0-2Z"></path><circle class="custom-cls-1" cx="161.5" cy="18.66" r="1.5"></circle><circle class="custom-cls-1" cx="1.5" cy="17.76" r="1.5"></circle><circle class="custom-cls-1" cx="11.5" cy="45.76" r="2"></circle><path class="cls-3" d="M126.07,71.09h-6v.1a5,5,0,0,1-5,5H53a5,5,0,0,1-5-5v-.1h-7a5,5,0,1,0,0,10h85a5,5,0,0,0,0-10Z"></path><path class="cls-4" d="M52.73 29.19 52.29 29.59 53.02 30.27 53.02 28.92 52.99 28.95 52.99 29.44 52.73 29.19z"></path><path class="cls-4" d="M52.99 29.44 52.99 28.95 52.73 29.19 52.99 29.44z"></path><path class="cls-4" d="M71,59.62l1.46-1,4.83-3.32L55,34.82l-1-.92L53,33l-2.21-2A3.78,3.78,0,0,0,50,33.19v37.9h4.32L69.59,60.62Z"></path><path class="cls-4" d="M92.62,8.62h0L86.47,3A3.68,3.68,0,0,0,84,2h0a3.68,3.68,0,0,1,2.43,1Z"></path><path class="cls-4" d="M75.39,8.62H92.62L86.44,3A3.68,3.68,0,0,0,84,2a3.65,3.65,0,0,0-2.43,1Z"></path><path class="cls-4" d="M115.02 30.3 115.02 30.32 115.77 29.63 115.02 28.94 115.02 28.97 115.74 29.63 115.02 30.3z"></path><path class="cls-4" d="M115.74 29.63 115.02 28.97 115.02 30.3 115.74 29.63z"></path><path class="cls-4" d="M80.55,53.08a6.26,6.26,0,0,1,7,0l1.53,1.06,23.94-22V11.62a1,1,0,0,0-1-1H56a1,1,0,0,0-1,1h0a1,1,0,0,1,1-1h0a1,1,0,0,0-1,1v12.8h0v1.35h0V32.1l24,22ZM71.77,29.45a1.13,1.13,0,0,1,1.63.12l7.33,8.28L97.37,20.12A1.15,1.15,0,0,1,99,21.75L81.54,40.42a1.05,1.05,0,0,1-.81.35,1.33,1.33,0,0,1-.93-.35l-8.15-9.33A1.14,1.14,0,0,1,71.77,29.45Z"></path><path class="cls-4" d="M117.26,31,115,33,114,34l-1,.92L90.78,55.3l4.83,3.32,1.45,1,1.46,1,15.24,10.47H118V33.19A3.78,3.78,0,0,0,117.26,31Z"></path><path class="cls-4" d="M93.53,59.62l-1.46-1-5.65-3.89A4.31,4.31,0,0,0,84,54a4.23,4.23,0,0,0-2.35.72L76,58.62l-1.46,1-1.45,1L57.87,71.09h52.36L95,60.62Z"></path><path class="cls-2" d="M117.7,28.68,115,26.24V11.62a3,3,0,0,0-3-3H95.62l-7.81-7.1A5.72,5.72,0,0,0,84.05,0H84a5.72,5.72,0,0,0-3.76,1.52l-7.81,7.1H56a3,3,0,0,0-3,3V26.24l-2.68,2.44A5.55,5.55,0,0,0,48,33.19v38a5,5,0,0,0,5,5h62a5,5,0,0,0,5-5v-38A5.56,5.56,0,0,0,117.7,28.68Zm-2.71.26,0,0v0l.75.69-.75.69v0l0,0ZM81.54,3A3.68,3.68,0,0,1,84,2h0a3.68,3.68,0,0,1,2.45,1l6.18,5.62H75.36ZM55,27.1V25.77h0V24.42h0V11.62h0a1,1,0,0,1,1-1h56a1,1,0,0,1,1,1V32.16l-23.94,22-1.53-1.06a6.26,6.26,0,0,0-7,0L79,54.14l-24-22Zm-2,1V29l0,0v1.35l-.73-.68.43-.4-.46-.43Zm-2,45.3a3,3,0,0,1-1-2.2v-38A3.78,3.78,0,0,1,50.81,31L53,33l1,.92,1,.92L77.33,55.3,72.5,58.62l-1.46,1-1.45,1L54.34,71.09Zm2.37.8,4.5-3.1L73.12,60.62l1.45-1,1.46-1,5.66-3.89A4.23,4.23,0,0,1,84,54a4.31,4.31,0,0,1,2.38.72l5.65,3.89,1.46,1,1.46,1,15.24,10.47,4.5,3.1Zm64.65-3a3,3,0,0,1-1,2.17l-3.31-2.27L98.52,60.62l-1.46-1-1.45-1L90.78,55.3,113,34.88l1-.92,1-.92L117.26,31a3.78,3.78,0,0,1,.76,2.21v38Z"></path><path class="cls-2" d="M52.99 28.95 52.99 28.09 52.26 28.76 52.73 29.19 52.99 28.95z"></path><path class="cls-2" d="M115.02 28.97 114.99 28.94 114.99 30.32 115.02 30.3 115.02 28.97z"></path><path class="cls-2" d="M92.62,8.62H75.39L81.58,3A3.65,3.65,0,0,1,84,2h0a3.68,3.68,0,0,0-2.45,1L75.36,8.62Z"></path><path class="cls-5 customColor" d="M80.73,40.77a1.05,1.05,0,0,0,.81-.35L99,21.75a1.15,1.15,0,0,0-1.63-1.63L80.73,37.85,73.4,29.57a1.16,1.16,0,1,0-1.75,1.52l8.15,9.33A1.33,1.33,0,0,0,80.73,40.77Z"></path></g></g></svg>