<svg class="icon icon--search" xmlns="http://www.w3.org/2000/svg" viewBox="0 0 19.81 19.89">
  <title>Magnifying Glass - Search</title>
  <path d="M18.74,19.89l-4.93-4.99c-1.5,1.22-3.39,1.85-5.34,1.87C3.82,16.75,.01,12.98,0,8.36,0,6.13,.86,4.04,2.43,2.46,4.02,.87,6.14,0,8.4,0h.03c4.66,.02,8.46,3.79,8.47,8.41,0,2.03-.7,3.93-2.01,5.45l4.92,4.98-1.07,1.05ZM8.4,1.5c-1.86,0-3.6,.72-4.91,2.02-1.29,1.29-2,3.01-2,4.83,.01,3.8,3.14,6.9,6.98,6.91h.02c1.82,0,3.53-.69,4.83-1.94l.11-.11c1.28-1.29,1.98-2.99,1.97-4.81-.01-3.8-3.14-6.9-6.98-6.91h-.02Z"></path>
</svg>
