<?xml version="1.0" encoding="utf-8"?>
<!-- Generator: Adobe Illustrator 22.1.0, SVG Export Plug-In . SVG Version: 6.00 Build 0)  -->
<svg version="1.1" id="Layer_1" xmlns="http://www.w3.org/2000/svg" xmlns:xlink="http://www.w3.org/1999/xlink" x="0px" y="0px"
	 viewBox="0 0 512 512" style="enable-background:new 0 0 512 512;" xml:space="preserve">
<g>
	<path d="M388.7,201.7c6.7-21.1-11.8-41.1-32.9-36.7c-19.3,4.2-25.3-24.7-6.2-28.8c44-9.6,81.1,32.6,67.2,74.5
		C410.9,229.4,382.7,220.3,388.7,201.7z M219.8,438.2C126.4,438.2,31,393.1,31,318.4c0-38.9,24.6-83.8,67.1-126.3
		c87.6-87.6,178.6-88.7,152.6-5c-3.5,11.5,10.8,5,10.8,5.3c69.9-29.5,123.5-14.8,100.2,45.2c-3.3,8.3,1,9.6,7.3,11.5
		C488.2,286.3,399.5,438.2,219.8,438.2L219.8,438.2z M346.1,309.6c-4.7-49-69-82.6-143.6-75.3c-74.5,7.6-130.8,53-126,102
		c4.7,49,69,82.6,143.6,75.3C294.6,404,350.8,358.6,346.1,309.6z M336.8,76.5c-22.8,4.9-14.8,38.4,7.3,33.7
		c63.5-13.4,118.5,46.4,98.2,109c-6.5,21.3,25.6,32.5,32.9,10.5C503.2,141.9,426.7,57.5,336.8,76.5L336.8,76.5z M267.8,349.8
		c-15,34.1-58.7,52.7-95.9,40.7c-35.9-11.5-51-46.9-35.4-78.8c15.6-31.1,55.5-48.7,90.9-39.6C264.3,281.5,282.8,316.1,267.8,349.8z
		 M191.9,323.4c-11.3-4.7-26.4,0.3-33.4,11.3c-7.3,11.3-3.8,24.6,7.6,29.9c11.5,5.3,27.1,0.3,34.4-11.3
		C207.5,341.8,203.7,328.5,191.9,323.4z M220.6,311.7c-4.5-1.5-10,0.5-12.6,4.7c-2.5,4.5-1.2,9.3,3.3,11.3
		c4.5,1.8,10.3-0.3,12.8-4.7C226.6,318.4,225.1,313.4,220.6,311.7z"/>
</g>
</svg>
