<?xml version="1.0" encoding="utf-8"?>
<!-- Generator: Adobe Illustrator 19.2.1, SVG Export Plug-In . SVG Version: 6.00 Build 0)  -->
<svg version="1.1" id="layer" xmlns="http://www.w3.org/2000/svg" xmlns:xlink="http://www.w3.org/1999/xlink" x="0px" y="0px"
	 viewBox="0 0 652 652" style="enable-background:new 0 0 652 652;" xml:space="preserve">
<g>
	<path d="M676.6,182.9c0-1.3-4.3-4.3-5.9-5.9c-2.3,1-3.8,3.1-5.8,4.1c-0.8-1-1-2-2.1-2.6c-1.2,0.5-1.8,1-3.1,1s-2.1-0.5-2.8-0.5
		c0.2,1.8,0,2-1.3,2c-1.3,0-0.8-1-2.1-1h-6.6c-1.3,0-3.8,0.5-5.3,1.2c-1.2,0.8-0.3,2.5-2.1,2.5c-1.3,0-2.1-1-3.5-1s-2,2.1-3,3
		c-0.5,0.2-1.6-0.3-2.1,0.3c0,3.8-2.1,6.9-2.1,8.9c0,1.3,1.5,4,1.5,5.3c0,1.3-1.5,2.5-2.5,3.6c1.8,6.1-4.6,13.5-6.1,19.3
		c-0.3,1-2.5,2-2.5,3.1c0,1.3,0.8,2.1,0.3,3c-1.8,4.5-1.8,8.6-5.6,12.4c-2,2-5.6,4.9-5.6,6.3c0,1.3,1,2.3,1,3.6
		c0,1.3-0.5,4.9-1.2,7.4c-1.3,1-4,2-4,3.3c0,1.3,1,1.6,1,2.8c0,1.3-0.8,1.6-1.8,2.1c-0.3-0.5-1.3-1.3-1.5-2.1
		c-1.6,3.3-0.8,8.7-4.8,13c-0.3-0.5-0.8-0.5-0.8-0.5c-2.8-2-1.8-6.3-2.6-8.2c-0.3-0.8-2-2.1-3-3c1-1.3,3.1-3.6,3.1-4.9
		s-1.6-9.4-1.6-10.7c0-3.5,3.1-7.8,3.1-10.4c0-1.3-3.8-2.8-4.8-3.6c3.6-2,5.3-5.8,5.3-9.2c0-4.9-3.6-3.5-3.6-11.2c0-1.3,1-2.6,1-3.8
		c-0.5-0.7-1.2-0.7-1.5-1c-0.2-1.5-0.7-3.8-0.7-5.1c0-1.3,4.6-8.1,4.6-9.4V184c0-2.6-4.6-9.4-6.9-10.6c-1.8-1-4.3-0.7-6.3-0.8
		c-1-0.8-1.6-2-2.3-2c-2.1,1-4.9,4.1-6.3,4.1c-1.3,0-3.6-1-4.9-1s-6.1,3.6-8.9,4.8c0,1.2,0,2.1-0.2,2.6c-0.3,0.5-1.3,1.5-1.8,2.1
		c-0.7,2.1-1,4.3-1.8,5.8c-2.1,3.8-5.1,7.3-6.9,9.6c-1,1.2-1.2,6.9-4.8,7.3c0.7,0.8,1.2,1.3,1.5,1.6c-5.4,3.1-7.4,9.6-10.9,14.4
		h-9.2c-1.3,0-9.2-3.1-10.6-3.1s-3.3,2.1-4.6,2.6c-6.9-5.4-17.2-2.1-23.3-6.6c1-2,1-4.6,1.5-6.6c2.6,0,4.9-2,6.1-3.3
		c5.1-6.1,13.2-10.4,12.4-17.7c0.8-1,2.3-0.8,3.3-1.5c0.5-3.5,4.6-5.3,6.9-6.6c0.8-0.5,2.3,0,3.1-0.8c3.8-3.8,8.1-7.4,11.4-10.7
		c1.8-2,1.6-4,4.5-5.8c-0.5-2.8-2.3-5.9-5.6-6.6c-1.2,1.2-1.3,2.1-2.5,2.1c-1.3,0-2.6-1.5-4-1.5c-1.3,0-1.8,1-3.1,1
		c-1.3,0-2.8-2-4.5-3.1c-1.6,1.6-3.8,2.1-5.3,2.8c-1.6,4.8-7.3,3.6-10.9,5.1c-4.3-1.2-7.3,3.5-9.7,7.3c-2.6,3.8-6.4,6.6-9.7,9.1
		c-1.8,1.5-4.5,1.6-6.1,3.5c-1.3,1.3-2.5,3.8-3.8,4.9c-1.8,1.5-4.9,1.8-6.8,3c-2.8,1.5-5.8,4.8-7.8,7.4c-1.6,2-3.5,9.7-7.8,7.8
		c-0.8,1.6-2.3,2-3.5,3.1c1.6,4.1-5.9,7.6-9.2,6.3c-1.6,1.5-3.3,2.5-4.8,3.8c-2.5,4.9-3.6,9.1-8.9,9.9c-0.7,1.5-2.1,3.8-2.1,4.9
		c0,1.3,3.1,6.3,4.5,6.3s2.1-1,7.3-0.5c2,0.2,4.5-0.2,5.4,2.3c-2.3,3.5-5.3,7.6-9.1,7.6c-1.3,0-9.4-2.8-13.5-3.3
		c-2.5-0.3-5.3,0.5-7.8,0c-3.1-0.5-6.8-1-9.9-1.5c-4.3-1-8.4-2.5-12.5-3.1c-0.5-0.3-0.8-0.7-0.8-1c2-1.5,4.5-3,6.1-5.1
		c1-1.3,1.5-2.8,2.8-4c0.8-0.8,2.6-0.7,3.5-1.3c2.1-3.5,9.1-7.6,12.5-11.5c2.5-2.8,4.5-10.2,9.7-10.2c1.3,0,4.3-1.8,3.1-3
		c1-1.3,2.3-3.1,4.1-4.3c1.6-1.2,5.9-0.7,5.9-3.1c0-1.3-2.1-3.6-3.3-5.1c-1.6-0.7-3.3-0.7-4.1-0.8c-1.8-2.6-11.2-4.6-12.2-4.6
		c-1.3,0-5.9,6.3-7.3,6.3s-2.3-1.6-3.6-1.6c-3.1,0-5.4,5.4-9.4,5.9c-3.3,5.1-6.4,9.9-10.1,14.4c-0.5,0.2-1,0.2-1.5,0.3
		c-4.3,4.6-10.2,8.6-12.9,13c-0.5,0.8-2.5,1.6-2.5,3c0,3-3.6,2.5-6.1,4.8c-0.3,0.3-11.9,14.5-15.5,14.5c-1.3,0-1.3-0.5-1.8-0.8
		c0-1.5-0.5-3.6-0.5-4.8c0-1.3,2.1-5.8,2.1-7.1s-2.6-9.1-2.6-10.4c0-1.3,2.6-4.6,3.6-6.3c-1.2-1.2-1.6-1.6-2-2.1
		c-1.2-4.6-2.1-12.4-2.1-13.7c0-0.2,3.1-5.9,3.1-6.6c0-4.8-2.1-5.3-6.1-10.1c-1-0.2-2,0-2.3-0.3c-1.2-1.2-2.8-2.5-4.1-2.5
		c-1.3,0-1.6,1.5-2.5,2c-3.6,2.1-9.7,4.3-13,5.6c-1.2,2-2,4.3-3.3,5.6c-1.3,1.3-3.5,1.5-4.1,2.6c-1.3,2.5-2.5,5.3-4,7.8
		c-1,1.8-3,1.8-3,3.8c0,1.3,0.7,3.1-0.2,4c-2.1,2.1-4.6,5.1-6.9,8.4c-1.2,1.5,0.5,7.1-3.6,7.3c-0.7,7.1-7.6,12-7.6,13.2
		c0,1.3,0.5,2-0.2,3c-0.8,0.5-2,1-2.8,1.6c-1.8,1.6-3.1,5.4-4.5,5.6l-1-0.8c0.5-2.5,1.8-5.1,2.5-7.1c0.5-2-0.5-6.6,1.8-7.9
		c-0.8-0.2-1,0-1-1.3c0-0.2,3.1-7.8,3.1-9.1c0-1.3-2.1-6.6-2.1-7.8c0-1.6-0.2-2.8,2.8-2.6c0.8-1.5,2.1-3.5,2.8-5.1
		c1.5-4.6,3.3-12.5,3.3-13.9c0-1.3-1-0.5-1-1.8c0-1.3,2.6-6.1,2.6-7.4v-7.8c0-1.3,4.1-11.9,4.1-13.2s-4.6-4.8-7.4-6.4
		c-0.8-0.5-2.5-0.7-3.8-0.7c-1.3,0-1.5,1.8-2.6,2.5c-1,0.5-2.6,0.3-3.6,0.8c-1.5,1-2.8,3-4.1,3s-1-1-2.3-1s-3.5,2.6-4.9,3.3
		c-0.7,1.5-1.2,3-2.1,3.8c-0.5,0.2-1.5,0.2-2.1,0.3c-4.3,3.8-6.9,9.6-8.7,16.2c-0.3,0.5-0.7,0.3-1,0.3l-1.6-1.6
		c-2.8,3.3-5.1,6.3-6.9,9.1c-0.8,1.5-0.8,3.3-1.8,4.6c-1.5,1.8-4.5,3.5-5.9,5.8c-1.6,2.8-2.1,6.1-4,8.9c-0.8,1.5-2.8,1.5-3.8,2
		c-0.7,1.2-0.7,2.6-1.2,3.8c-1.2,1.5-2.6,2-3.6,2.5c-2,3.6-5.3,7.6-8.7,10.9l-0.8-0.8v-2c0-1.3,1.5-3,1.8-4.6c1-3.8,1.5-8.7,4.1-12
		c-0.3-1.2-0.5-2.6-0.2-3.6c2.8-9.4,6.1-18.6,8.4-27.7c0.8-3.1,2.8-7.4,4.3-10.9c2-4.5,3.3-12.9,3.3-14.2c0-8.6,5.8-12.9,5.8-16.5
		c0-1.3,0-2.1,3.1-2.1c1.3,0,6.3,2.1,7.6,2.1c1.3,0,5.3-2.3,7.4-2.8c2.5-0.5,6.9-1.3,8.2-1.3s11.1,2.1,12.2,2.1
		c1.3,0,4.1-1.5,5.4-1.5c1.3,0,4,3.6,5.3,3.6c1.3,0,2.6-2.1,3.8-2.5c1-0.2,2.6,0.3,3.8,0.2c1.5-1.2,4.8-3,7.9-3
		c1.3,0,4.1,2.6,5.4,2.6s2.6-1.6,4-1.6s5.8,2.6,7.1,2.6s3.1-1.6,4.5-1.6c1.3,0,2.3,1,3.6,1s5.6-2.1,8.1-3.1c4.1,0.5,4.6,0,5.1,0
		c1,0.5,1.8,1,3.1,1s4.9-2.6,6.3-2.6c1.3,0,1.5,1.5,2,1.8c2.1,0.2,4.1,0.7,6.3,1.8h6.4c1.5-1.2,3.1-1.5,3.6-1.5
		c1.3,0,5.1,1.5,7.3,2.1c0.5,0,1-0.5,7.9,0c1.6-1.2,3.6-3.6,4.9-3.6c1.3,0,4.9,3.6,6.3,3.6s2.3-1,3.6-1c1.3,0,3.1,1,4.5,1
		c4.8,0,1.3-3.6,4.9-3.6c1.3,0,0.7,0,1,0.3v1.3l-1,1.2c0.7,0.7,0.7,1.3,0.7,1.3c1.8-1.2,4-3.6,5.3-3.6c1.3,0,3.1,0.2,4.6,0.7
		c1.3,0.5,2.1,2,3.5,2s10.7-2.1,12-2c1.6,1.3,2.1,1.5,3.8,1.5c1.3,0,5.4-1,6.8-1s2.6,1,4,1s3.6-3.1,4.9-3.1s2.6,1,3.6,0.8
		c1.5-0.3,3.1-0.7,4-0.2c1.3,0.7,2.1,2.1,3.1,2.3c2.1,0.3,4.8-0.5,6.8-0.2c1.8,0.2,3,2,4.3,2c1.3,0,2.6-1.5,4-1.5s1.2,0.5,1.8,0.8
		c2.6,0.2,5.9-0.8,8.4-0.2c1.3,0.3,2,2,3.1,2.5h6.9c2.1-3.3,0-5.1,3.5-5.1c1.3,0,4.3,0.7,6.1,1.6c2,1,2.1,2.5,3.3,2.5
		c1.3,0,3.6-2.6,4.9-2.6c1.3,0,2.6,2.1,4,2.1c1.3,0,5.4-3.1,6.8-3.1s16-1,17.3-1c1.3,0,3,0.5,4.1,1.3c1.2-0.3,2.1-0.5,2.5-0.2
		c1.6,1.3,4.1,2.5,5.4,2.5c2.1,0,7.1-5.1,7.1-6.6c0-1.3-2.3-5.9-4-7.4c-2-1.6-5.1-2.3-7.9-3.3c-1.2,1.6-2,3.8-3.6,4
		c-8.1,1.3-16.8,0.3-26.1,1.3c-1.3,0.2-2.1,2-3,2.5h-1c-0.3-0.8-1-2-1.6-2.5h-7.6c-1.6,0-6.9-0.5-9.6-2.1c-2.6,4.5-10.1,1.8-9.9,8.4
		c-0.2-0.5-0.8-0.5-1.2-0.8c0-1.5,0.5-2.5,0.5-3.1l-27.4-1.2c-1.6,0.5-3.3,1.5-4.6,1.5s-9.1-3.6-10.4-3.6c-2.8,0-6.9,4.1-8.6,4.1
		c-1.3,0-6.3-3.1-7.6-3.1c-1.3,0-7.1,1.5-8.4,1.5s-2.1-1-3.5-1s-4,1.6-5.9,2.1c-1.6-2.3-3-2.6-3.3-2.6c-1.3,0-3.5,1-4.8,1
		s-1.8-1.5-3.1-1.5c-1.3,0-2.3,1-3.6,1c-1.3,0-5.9-3.6-7.3-3.6c-3.3,0-1.6,4.1-5.4,4.1c-1.3,0-2.8-1-4-1c-8.9,0.5-9.4,0-10.1,0
		c-1.2,1.2-1.6,1-3,1c-1.3,0-3.1-0.5-9.4-0.5c-0.5,0-1.8,0.7-2.1,1c-0.8-1.2-6.1-3.6-7.9-3.6c-1.3,0-10.2,3.1-11.5,3.1s-3.5-1-4.6-1
		c-1.3,0-1.6,1-2.1,1c-2.1,0-4.3,0-5.8,0.2c-0.2,1-0.5,1.3-1.8,1.3c-1.3,0-7.6-1-8.9-1c-1.3,0-4,1-5.3,1c-2.5,0-4.3-3.1-6.6-3.1
		c-1.3,0-9.7,3.6-10.9,3.6c-1.3,0-3.5-2.1-4.8-2.1c-1.3,0-3.6,1.5-5.3,2c-2,0.5-4.3-0.7-5.8-0.2c-1.6,0.5-2.8,1.5-4.1,1.5
		s-4.9-2.1-6.3-2.1s-2.8,1.6-4.1,1.6s-2.6-2.1-4-2.1s-0.5,1-1.8,1c-1.3,0-5.3,0.5-6.6,0.5c-3.1,0-5.8,0.3-9.4-3c1-1.3,3-1.6,4-3
		c1.2-1.8,2.6-4.8,3.1-6.9c0.5-2,0.7-4.3,0.8-5.8c0.3-0.5,0.8-1,1.2-1.2c1.8-4.1,4-8.1,5.3-11.9c1.3-3.5,2.6-9.9,6.3-10.6
		c0.8-2,4.5-4.6,4.5-5.9s-0.5-1.5-0.8-1.8c-0.8-0.7-2.1-1.5-2.8-2.6c-0.8-1.5-0.7-3.1-1.3-4.6c-1.5-1.2-3-2.3-4.1-2.3
		c-1.3,0-0.5,1.5-1.8,1.5c-1.3,0-0.2-1-1.6-1c-1.3,0-3.1,1.5-4.5,1.5c-1.3,0-1-1-2.3-1c-1.3,0-1,1-2.3,1c-1.3,0-0.8-0.3-0.8-0.3
		c0-0.3,0.5-1.6-0.2-2.1h-2.8c-1.3,0-2.8,2.1-3.8,2.8c-0.5-0.2-1.6,0.5-2.1,0.7c-8.1,0.8-10.1,15-12.9,20.8
		c-0.7,1.5-3.6,2.3-4.5,4.1c-0.8,1.8-0.7,4.3-0.5,6.1c-2.6-1-4.3,3.1-4.9,3.6c-1.2,1.2-3.3,1.6-4,3.3c-2,5.6-7.3,18.5-14.5,18.5
		c-1.3,0-6.8-2.6-8.1-2.6c-1.3,0-4.1,0.3-5.6,0.7c-2.1,0.7-4.6,3-5.9,3s-2.1-1.5-3.3-2.6H155c-1.3,0-4.5-1.6-5.8-1.6
		s-14,3.1-15.3,3.1c-1.3,0-8.1-2.6-9.4-2.6s-5.4,2.1-6.8,2.1s-3.1-1.5-4.5-1.5c-1.2,0-5.4,2.1-10.4,2.1c-7.3,0-5.3-3.6-9.7-3.6
		c-1.3,0-1.8,1.3-2.8,1.3c-2.6,0-5.3-0.5-7.4-0.2c-1.2,0.2-2.6,1-4,1c-1.3,0-4.5-2.6-5.8-2.6c-3.1,0-7.8,0.3-7.8,4.1
		c0,1.3,0,1.3,0.2,2c2,1.6,3.6,4,6.3,5.1c3.5,1.5,10.6,3.8,11.9,3.8s3.6-4.8,4.9-4.8s4.1,4.1,5.4,4.1c1.3,0,5.9-2.1,7.3-2.1
		c1.3,0,6.3,2.6,7.6,2.6c1.3,0,2.1-0.7,3.1-0.7c2.6,0,5.8,0.3,8.4,0c1-0.2,2-1.6,2.6-1.8c1.5-0.3,3.1,0.3,4.8,0.2
		c0.5-0.3,0.7-0.8,2-0.8s1.6,2.1,2.8,2.1c1.3,0,1.6-1,2.8-1c1.3,0,4.6,2.1,5.9,2.1s10.4-3.1,11.7-3.1c1.3,0,8.4,2.6,9.7,2.6
		c1.3,0,3-0.5,4.5-0.7c0.5-0.3,0.2-1.3,1.5-1.3h7.3c1.3,0,2.6,1,4,1c1.3,0,5.9-1,7.3-1c1.3,0,1.6,0,2.1,0.3v1.3
		c-2,2-4.6,5.3-5.8,7.6c-1,0.7-2,0.2-3.1,0.8c0.2,1.6-0.7,3.3-2.5,4.3c-0.2,1,0,2.1-0.3,3.1c-1.2,2.8-2.1,5.9-3.6,8.2
		s-4.9,3.1-6.9,5.1c-1.2,1.2-0.8,4-1.5,5.3c-1,2.8-2.5,5.8-3.8,8.1c-3.6-1.5-6.4,6.3-7.6,7.6c-1.6,1.8-3.8,3.3-4.5,5.3
		c-0.8,2.5-1.5,5.8-3,8.2c-0.7,1.2-1.8,1.5-2.1,1.6c-1.6,2.8-2,4.8-5.3,5.8c-1.6,2.8-1.5,7.6-5.9,7.3c-1.6,6.4-9.9,12.7-9.2,19
		c-2.3,1.5-5.8,3.8-6.9,6.8c-1.5,3.8-4,8.6-6.8,13.4c-3-0.5-6.1-1-8.7-1.3c-1-0.2-2.1-2-3.5-2s-2.6,1-4,1c-1.3,0-5.3-2.6-6.6-2.6
		s-3.3,1-4.9,1c-22.8,0-10.4,0.5-15.7,0.5c-1.3,0-1.8-1.5-2.6-2.5c-3.6-0.2-7.8,0.7-11.4-0.3c-1-0.3-2.6-3-4.5-3c-1.3,0-1,1-2.3,1
		s-6.3-0.5-8.6-1c0.5-1.3,1-2.3,1.5-3.1c5.1,1.3,8.6-4.5,14.7-7.9c1-0.5,2.8,0,3.6-0.3c4.1-1.8,8.6-3.3,12.4-4.1
		c7.6-6.1,17.2-10.7,24.2-12.5c1.6-0.3,3.1-3,4.6-3.8c1.5-2.5,10.4-8.1,12.9-8.1c1.3,0,2.6,1,4,1c1.2,0,3.5-4.3,4.8-5.6
		c1.5-0.2,3.1-0.2,4.6-0.7c0.8-2.1,2.3-4.9,2.3-6.3c0-5.6-3.8-2.5-5.3-10.9c-2.3,0-5.6-1.2-6.9-1.2c-3.3,0-4.1,1.8-7.4,3.6h-7.3
		c-1.3,0-0.3-1-1.6-1c-1.3,0-3.8,2.6-5.3,3.5c-1,0.2-2-0.3-3.1-0.2c-3.5,3.5-7.4,8.1-12.5,10.1c-2,0.8-4.9,0.7-6.8,2
		c-2.6,2-5.6,6.3-8.4,7.4c-0.8,0.3-2-0.3-3.1-0.2c-1.8,0.3-3,3-4.3,4c-2.8,2.1-6.3,2.8-9.4,4.1c-1.5,0.7-3.3,1.3-4.1,2.5
		c-0.2,0.5-0.7,1.6-0.8,2c-4.3,3.6-11.4,3.1-15.8,4.8c-3.6,1.3-7.6,4.3-11.1,6.3c-3,1.6-6.1,3.6-10.4,4.1c-2.1,2.8-9.7,4-10.6,4
		c-1.3,0-0.8-1-2.1-1s-3.5,3-5.1,4c-3.5,2.1-7.1,4.3-10.9,5.8c-1.5,0.5-3.6,0.2-5.3,0.8c-1.6,2.5-4.8,6.6-4.8,7.9s0,4.5,0.7,6.4
		c0.8,2.3,3.6,3.1,5.3,5.4c1.2,0,2.8-1,4-1c1.3,0,2.8,0.7,4.5,1c1,0.2,2.6-1,7.9-0.5c6.9,0.7,13.4,2.8,20.3,3.5
		c3.5,0.3,4.1,1.2,5.4,1.2s6.6-2.1,7.9-2.1c1.3,0,5.8,1.5,9.1,2.1c1,0.2,2.1-0.2,2.6,0c1,0.3,1.6,1.5,3,1.5s5.3-2.6,6.6-2.6
		s16.5,3.1,17.8,3.1c1.3,0,5.4-1,6.8-1s7.8,1.2,11.5,1.3c3.1,0.2,6.8-0.3,9.9,0.3c1.5,0.3,3.1,2,4.1,2.3c1.6,0.5,4.1,1.3,5.1,2.1
		c-1,2-2.3,4.3-3.3,6.1c-1,1.8-2.8,2-4.5,3.1c-0.2,1.6-0.2,3.3,0,4.3c-0.7,1-9.1,9.2-9.1,12.5c0,1.3,1,1.5,1,2.8
		c0,0-4.9,8.7-7.1,10.6c1.3,5.4-3.3,8.4-4.8,13.4c-1,0.2-2.6,0.2-3.8,1.3c1.2,3.1,0.5,6.8-0.7,8.7c-1.2,2.1-4.6,4.1-4.9,6.4
		c-0.2,1.2,0.7,2.6,0.2,3.6c-2.1,4.8-4.5,9.2-5.9,14.2c-1,3,0,7.1-1.3,9.9c-3.1,6.9-4.6,14-4.8,20c0,2.6-1.8,6.8-1.8,8.1
		c0,1.3,1,2,1.3,2.3c4.1,1.3,11.2,5.4,12.5,5.4c1.3,0,2.1-1,3.1-1.6c0.2-0.7,0.2-1.5,0.7-2c6.4,0.5,6.1-4.1,10.4-4.1
		c1.3,0,3.5,1,4.8,1c3,0,8.9-2.1,11.5-3c3.6-1.2,7.6-1.5,11.1-3c3.1-1.3,10.7-5.8,15.2-8.1c1.8-1,4.5-2.1,5.8-2.1h7.8
		c1.3,0,5.3-5.6,7.9-6.1c9.7-2,21.3-11.1,32.5-15.7c2.5-1,8.1,0.2,9.7-1.5c6.1-5.4,14.8-8.2,20.5-11.4c3-1.6,4.8-5.1,6.8-6.9
		c1-0.2,2,0.5,3.1,0.2c7.4-5.6,15.7-11.9,23.3-17.5c-0.2,1.8,0.3,4,1,5.4c4.8,1.8,12.5,4.9,13.7,4.9c1.3,0,5.9-2.5,8.2-3.3
		c7.3-2.3,18.3-14.4,17.8-22.6c0-1.2,2-2,2-3.3s-0.5-1.8-0.5-2.3c2.5-1.6,1.8-4.3,4.9-6.4c0.2-1.5,1.3-3.6,1.3-4.9
		c0-1.3-0.5-1.2-0.3-1.8c1.2-4.6,8.2-2.1,8.2-7.9c0-1.3-2.1-3.6-2.1-4.9c0-0.3,4-5.6,4.3-9.1c0.3-0.5,1.5-1,1.8-1.5
		c1.6-3.5-0.8-7.3,4.1-8.9c0.3-2.8,3.5-10.4,5.8-10.4c1.3,0,1,0.5,1.3,0.5c0,1.3,0.5,3,0.5,4c0.3,4.1-0.5,8.4,0.3,12.5
		c0.2,0.7,1.6,1.2,1.8,1.5c-0.3,2,1.3,5.4,1.3,6.8c0,1.3-1.5,2.6-1.5,3.6c0.5,9.4,0.7,9.7,0,10.4c0.5,1.6,1,4,1,5.3
		c0,1.3-1,5.4-1,6.8c0,1.3,3.6,5.9,3.6,7.3c0,1.3,0,0.8-0.3,1.3c-1.5-0.5-1.8-1.3-2-2.1l-0.8,6.1c1,4.5,0.2,7.4,0.7,12
		c0.5,0.5,1,1.2,1.6,1.5c1.5,0.3,3.3-0.8,4.1,1.5c-3.3,2-3.1,4.1-3.1,7.6c0,1.3,2.6,12,2.6,13.4s-1.6,5.3-1.6,6.6s1.3,6.1,1.6,8.6
		c0.2,1.2,1.5,2.5,2.6,3.1c1,0.5,2.8,0.7,4,0.7c1.3,0,2.3-1,3.5-1c6.3,0,7.4,0,8.1-0.8c-0.5-1.2-0.5-2.1-0.5-2.5
		c2-1.5,4.3-2.1,6.1-3.6c0.8-0.7,1-2.1,1.5-2.5c1-0.2,2.6-0.2,3.6-0.3c1.2-1.5,2.1-3,3.1-4.5c1.5,0,3.6-0.7,5.3-1.3v-4.8
		c0-1.3-2.6-3.5-2.6-4.8s-1.6-9.9-2.1-14.8c-3.8,0.3-3.6-2.1-3.6-3.5c0-1.3,0.2-4.1,0.7-6.3c0.5-2.1,2-4.5,2-5.8s-2.8-7.8-3-11.7
		c-0.2-3-0.7-6.1-0.8-9.4c-0.3-0.7-1.5-1.6-1.8-2.1c0.5-1.5,2.1-3.8,2.1-5.1s-1.5-0.5-1.5-1.8c0-1.3,1.5-3.6,1.5-4.9s0.5-4,0.5-5.3
		c0-1.3-1.5-1.3-1.5-2.6c0-1.3-1-4.3-1.3-6.3c-0.3-2.1,0.2-4.1-0.2-6.3c-0.2-0.2-0.7,0.5-0.7-0.8s1-1.6,1.5-2.6h7.6
		c1.3,0,1.5,1,2.1,1.3c3.8,0.2,7.4,1.6,10.6,2.1c3.6,0.5,7.3,0,10.4,0.3c2.8,0.2,5.3,0.8,7.3,1.5c2.3,0.8,4.1,2.3,5.8,2.8
		c1.5,0.5,3.1-0.5,4.8-0.2c1.3,0.3,2.3,1.5,3.6,1.5c1.3,0,5.8-2.1,7.1-2.1s1.6,1.5,2.8,2.6h6.8c1.3,0,4.1,1,5.6,1.8
		c-1.5,0.8-3.5,0.3-4.9,1c-2.3,3.1-5.8,5.3-7.9,8.2c-0.7,0.8-0.7,1.5-0.7,2.8c0,1.3,0.5,2,0.3,2.5c-1.3,1-4.1,2.8-4.1,4.1
		c0,1.3,0.5,1.2,0.3,1.6c-0.8,1-2,1.5-2.3,1.6c-1.5,1.6-2.3,7.1-5.9,7.1v1.8c0,1.2-3.6,3.5-3.6,6.3c0,1.3-1.6,9.9-1.6,11.2
		c0,1.3,0,1.8,0.2,2.8c2,1.8,3.6,5.3,5.8,5.6c8.2,1.2,11.5,0.3,14.7,0.7c2.8,0.2,6.1,1.5,7.3,1.5c1.3,0,2.5-2,3.8-2.5
		c1.5-0.5,3.8-0.2,5.3-0.8c1.8-1,2.3-3,3.6-3.3c2.5-0.7,5.9,1,8.4,0.2c3.5-1.2,6.3-3.8,8.9-4.9c2.5-1,5.4-1.3,7.9-2.5
		c1.2-0.5,2-1.6,2.6-1.8c2.1-0.3,4.6,0.5,5.8-0.3c6.6-4.6,12.7-6.6,18.8-10.1c1.8-1,4.5-1,6.3-2.5c2.3-1.6,3-4.3,4.6-5.4
		c2.3-1.5,5.4-1.3,7.9-3c1.5-1,9.1-9.2,12.9-9.2c1.3,0,0.8,0.3,0.8,0.3c-0.5,5.9-5.8,16.7-5.8,24.9c0,1.3-0.5,5.3-0.5,6.6
		c0,0.3,0.3,6.8,4.5,6.8c1.3,0,2-1.8,2.6-2c2.1-0.3,5.4-0.7,6.8-0.7c1.3,0,6.3,1,7.6,1c7.6,0,4.8-4.8,14.5-4.8c2-3.8,7.4-3,11.5-4.9
		c4.6-2.3,4.1-4.5,6.6-4.5c1.3,0,2,0.5,2.6,1c0.2,2,2.3,4.8,2.3,6.1s-1,2-1,2.6c0,1.2,0,19,0.7,20.1c1.2,0,2.5-1.2,2.8-1.5l1.3,1.3
		v1.3c-1,1-1.6,2-1.6,3.3s-0.5,6.6-0.5,7.9s0,2.8,0.8,3.6c0.5,0.2,1.3,0.3,1.3,1.5c0,1.2-2.6,3.5-2.6,4.6c0,1.3,1.5,9.1,1.5,10.4
		c0,0.8-0.7,7.1,2.8,7.1c1.3,0,1.8-1,3.1-1c1.3,0,10.4,1.5,11.7,1.5c2.5,0,6.4-2.8,8.9-2.1c-0.5-0.8-1.8-1-2.1-0.8v-1.3l1-1h1.3
		c0.5,1,1.5,2.6,2.8,2.6c1.3,0,2.5-2,3.8-2.5c1.5-0.5,3.1-0.2,4.8-0.3c1.2-1.3,3.8-6.9,3.8-9.7c0-1.3,0.5-3.5,0.5-4.8s-1-1.3-1-2.6
		c0-1.3,2.8-7.4,4-11.2c0.3-1.5,0.2-3.6,0.3-5.1c0.8-1,2.1-1.5,2.8-2.6c0.8-1.5,1.8-4.1,1.8-5.4s-1.5-2.1-1.6-3
		c1.5-1.5,3.3-3.1,4-4.8c0.3-1-0.2-2.8,0.3-3.6c0.7-1.3,2-2.5,2-3.8s-1-0.8-1-2.1v-2.5c1-0.5,2-0.5,3-1.6c0.5-2,1.6-3.8,1.3-5.8
		c3.6-6.4,3.6-14.4,8.7-19.3c0-1.2-1-2.1-1-3.5c0-1.3,0-1.2,0.3-1.6c0.5,0,1.5,0.5,1.8,0.5c0.5,5.6,0.5,11.2,0,16.7
		c0.5,0.7,1,1.2,1.5,1.5c-2,0.7-1.2,4.1-1.8,5.1c-1.3,2.6-2,5.8-2,7.4c0,0.2,1,10.4,0.7,13.7c1,1.2,1.5,1.2,1.5,2.5s0,0.8-0.3,1.3
		c-0.8-0.5-1.5-1.5-2.1-1.5c-0.2,1.2-0.7,2.5-0.7,3.8c0,2.5,3.1,3.5,3.1,5.3c0,1.3-1,0.8-1,2.1s1,3.5,1,4.8s-1.6,1.3-1.6,2.6
		c0,1.3,1.6,3.1,1.6,4.5c0,1.3-1.6,2.3-1.6,3.5c0,9.9,1,12,1,13.4s-0.7,3-1.2,4.3c-0.5,1.2-3,2.1-3,3.5c0,1.3,4.8,5.1,6.3,6.9
		c-1.3,0.3-4.1,1.3-4.1,2.6s0,3.1-0.5,5.9c1.3,0.2,2.1,0.7,3.1,1c-3,3.3-3.1,3.8-3.1,5.8c0,1.3,1,5.8,1.2,8.2
		c0.5,0.3,1.3,0.3,1.3,1.6c0,6.9-4.1,7.8-4.1,13.4c0,1.3,1,3.6,1,4.9c0,5.6-3.6,2-3.6,5.3c0,1.3,0.5,3.3,1,4.3c0,0.5-0.5,1,0,7.8
		c-0.5,2.6-2.1,7.1-2.1,8.4s2.6,4,2.6,5.3c0,1.3-0.8,3.6-1.3,5.1c-0.5,1.6-3,3.5-3,4.8s3.1,6.6,3.1,7.8c0,1.3-1,0.7-1,2v6.9
		c0,1.3-1.5,7.1-2.6,10.4c0.7,0.7,1.6,1.2,2,1.6c0.7,4.6,1.8,13.2,1.8,14.5s-2.5,1.8-3.5,2.5c-0.7,1.6-0.7,3.3-0.7,4.6
		s1.5,9.1,1.6,13.9c0.5,0.7,1.5,1.5,1.5,1.8c-1,0.5-1.6,1-1.6,2.1c0,1.3,2.1,3.6,2.1,4.9c0,1.3-2.6,8.9-2.6,10.2
		c0,1.3,0.7,1.2,1.2,1.8c1.6,0,3.6-0.5,5.1-0.2c0,2-0.5,2.5-0.5,2.8c-2,0-3.5-0.7-5.3-0.5c-0.2,3.8-1.2,7.4-1.6,11.2
		c3,1.5,6.9,7.4,10.4,7.4c1.3,0,7.1-1.3,10.2-1.8c1-0.2,1.8-1.5,3.1-1.8c3.6-0.8,7.4,0.2,10.6-0.8c1.8-0.7,2.3-4,3.6-4
		s4.8,0,6.9-0.7c0.7-2.8,1.2-6.3,1.2-7.4c0-1.3-4.8-7.9-4.8-9.1c0-1.3,1-1.8,1-3.1s-1-1-1-2.3s3.1-4.5,3.1-5.8
		c0-1.3-2.1-5.3-2.1-6.6c0-1.3,1-3.6,1-4.9c0-1.3-4.6-8.1-4.6-9.4c0-1.3,4.1-10.7,4.1-12s-1-1.3-1-2.6c0-1.3,1-5.8,1-7.1
		c0-3.5-1.5-2.5-4.6-6.9l0.8-0.8c0.8,1,1,2.1,2.3,2.1s1.5-0.7,2.1-1.3c-0.5-1.6,0.5-4,0.5-5.3s-2.1-5.3-3.1-7.3
		c1.8,0,3.6-5.8,3.6-7.4c0-1.3-0.5-2-0.5-2.5c0.3-0.5,1,0.2,1-1.2c0-1.3-1,0-1-1.3s1-0.7,1.5-1.2v-1.8c-1.6-0.7-3.5-2-4.1-3.1
		c-1.3-2.5-2.6-5.9-2.6-7.3c0-1.2,3.3-7.8,3.5-7.9c1-0.2,2-0.2,2.6-0.2c0-2.3,1.2-4.9,1.2-6.3s-1.6-6.3-1.6-7.6s1.3-3.1,1-8.9
		c-0.2-2.6-1-5.8-1.3-8.4c-1-0.7-2.3-0.2-2.3-1.5s-0.5-2.8-0.5-4.1s1-1.5,1.3-2c-0.3-1.2-0.3-2-0.2-2.5c0.8-1,2.5-2,2.8-3.1
		c0.7-2,0.7-4.8,0.7-6.1c0-4.8-5.3-8.7-5.3-10.7c0-2.3,4.5-4,4.9-4.6c0.2-1.6,1.3-3.8,1.3-5.1c0-2.5-1.6-6.4-4.9-9.2
		c-1.2,0.3-2.6-0.2-3.5,0c2.6-8.2,6.3-4.3,6.3-11.4v-6.6c0-0.7,6.8-8.7,6.8-11.2c0-1.3-1.5-1.8-2-3c-1.5-3-1.5-6.4-3-8.7
		c-0.5-0.8-1.3-1.2-1.6-1.8c0.3-2-1.5-3.1-1.6-4c0.3-0.2,7.3-0.5,7.3-4.3c0-1.3-1-2.8-1-4.1s1-2.3,1-3.6s-3.1-6.8-3.1-8.1
		c0-1.3,1-1.6,1-3v-4.8c-1.3,0.5-2.1,0-2.5-0.3c2-2,2-1.5,3.6-2v-3.1c0-1.3-1.2-4.3-1-5.8c0.3-2.1,0.7-4.3,0.3-5.8
		c-0.2-1-1.3-2.3-1.3-3.6c0-1.3,2.1-2.3,2.1-3.6c0-1.3-1.5-3.1-1.6-4.8c-0.3-5.3,0.5-6.8,0.5-13.7c-2.8-1.5-2.6-2.8-2.6-3
		c0-3.5,1.6-1.3,4.1-5.6c0-0.7-0.5-1.2,0-10.6c-1.3-1-2.3-1-3.1-2.5c1.5-1.5,4.1-3.1,4.1-4.5c0-1.3-1.6-8.6-1.6-9.9
		c0-1.3,1-1.3,1-2.6c0-0.2-2.1-4.5-2.1-6.3c0-1.3,0-4,0.7-5.9C673,187.3,676.6,186.2,676.6,182.9z M145.3,259.1
		c0.7-0.8,0.5-2.6,0.8-3.6c0.2-0.7,1.8-1,2.3-2.1c4.1-8.4,6.9-7.8,6.9-14c0-1.3,1-1.6,1.2-2.1c1.5-1,5.1-1,6.4-3.8
		c1.2-2.5,1.3-5.9,2.5-8.4c0.5-1.3,2.6-1.6,3.3-2.6c2.5-3.5,7.4-10.4,6.9-14.7c5.8-1.3,3.1-8.2,5.9-10.6c1.3-0.7,3.6-0.3,4.3-2.5
		c0.7-2,1.2-4.6,1.8-6.8c1.2-0.2,2.8,0.2,3.6-0.8c2.8-3.1,4.6-7.1,7.4-11.4c0.7,0.7,1.8,1.5,1.8,2.8c0,1.3-0.7,7.1-2.3,10.4
		c-0.5,1-2.1,2.3-2.3,3.3c-2.8,12.9-2.1,6.4-2.1,14.8c0,1.3-2.8,5.4-3.8,8.2c-0.5,1.5,0,3.8-0.5,5.8c-0.5,1.6-2.3,3-3.8,5.3
		c-1.6,2.3-2.1,6.6-2.1,7.9c0,1.3,1.5,1.6,2.1,2.8c-0.5,1.2-1.8,2.8-2.5,4.3c-0.2,0.5,0.5,1.5,0.2,2.6c-1.3,2.1-2.1,1.2-3.6,1.2
		c-1,2-2,4.8-2,6.1c0,1.3,1,2.3,1,3.6c0,1.3-3.6,6.4-4.8,9.6c-4,0-9.2-2.1-13.7-1.5c-5.8-0.5-6.3,0-6.9,0c-0.7-0.7-1-1-2.3-1
		c-1.3,0-1.6,1.5-2.8,1.5c-1.3,0-1.8-1.5-3.1-1.5c-1.3,0-1.6,0.5-2.8,0.3C143.5,261.1,144.8,259.9,145.3,259.1z M237.7,305.6
		c-2.5,2.3-5.4,6.4-8.7,8.4c-1.8,1.2-4.8,1.6-6.8,3c-1.2,0.7-1.5,2.5-2.1,4c-0.8,1.6-2.1,3.8-3.6,4.6c-3.3,1.8-7.8,1.5-10.9,4
		c-3.8,3-8.4,4.6-12,7.3c-1.3,1-2,3.5-3.8,5.4c-1.2-0.3-2.6-0.3-4.1,0c-1,0.7-2,2.5-3.1,3.1c-2.5,1.5-5.8,3.5-8.9,4.8
		c-2,0.8-4.5,1.8-7.3,3.1c-4.9,2.3-10.9,5.1-16.7,7.9c-3,1.3-7.1,1.6-9.9,3.5c-5.4,3.5-11.7,6.8-15.2,10.1c-3.8,0.2-7.4,1.8-11.1,2
		c-0.5,0.3-1.5,1.5-2.1,1.8c-2,0-4.8,0.8-5.3,3c-2.5,0.8-5.8,1.5-8.2,2c-2.1,0.5-6.1,3.5-7.4,3.5c-1.3,0-2.1-0.5-3.3-0.7
		c0,0-0.2-0.5-1.2,0.7V382c3.1-5.9,4.6-13.5,6.8-19.8c1.6-4.9,4.9-9.7,6.4-14c1.6-4.6,1.8-4.3,1.8-6.9c0-1.3,7.3-11.7,9.7-17.7
		c0.7-1.5,0.2-3.8,0.8-5.8c0.8-2.5,4.3-3.6,3.5-6.8c5.1-4,6.3-4.6,6.3-9.2c0-2.5,5.4-6.9,3.6-12.7c1.6-1.2,3.1-2.6,4.3-4.1
		c3-0.2,7.9-1.8,9.2-1.8s2.1,1.5,3.5,1.5s1.5-0.8,2.6-1c2.1-0.3,4.8,0.3,7.3,0.2c0.5-0.3,0.8-1.3,2.1-1.3s2.1,1.8,3.1,2
		c2.6,0.3,7.3,1.8,8.6,1.8s1.6-1,2.8-1.6c1.2,0.5,2.3,1.6,2.3,2.8c0,1.3-3.1,4.8-3.1,5.9c0,1.3,1,3.1,1,4.5s-2.6,2.6-2.6,4
		s1,1,1,2.3c0,1.2-1-1.5-1.2,4.8c-1.2,0.7-2.5,0.3-3.1,1.2c-1.3,1.6-1.3,4.5-1.6,6.6c-0.2,1-0.8,2.6-1.6,4.3
		c-0.3,0.5-0.8,0.7-1.5,1.2c-0.5,0.5,0,1.2,0,2.5c0,3.3-3.8,4.1-5.8,7.3c3.8,3.5-0.2,7.3,4,10.6c1.5,0.2,4,0.7,5.1,0.7h8.2
		c1.5-2,3.1-5.1,5.1-6.8c0.8-0.7,2.8-0.3,4.1-1.3c10.4-7.9,17.3-18.6,18.8-29.9c0.7-4.8,4.6-8.6,7.8-12c0.7-0.8,2.5-0.7,3.8-0.7
		s9.1,0.5,10.4,0.5s2.6,0.5,3.8,0.7c1.2,1,1.6,2.5,3,2.5c1.3,0,3.1-1,4.8-1.5c1.8,4.5,6.4,2,6.4,7.1
		C238.5,302.8,238,304.1,237.7,305.6z M243.9,250.4c-0.2,1-2,2.3-2.3,3.6c-0.8,3.6-1.6,9.4-1.6,10.7c0,1.3,1,4,1,5.3s-0.5,3-1.2,4.1
		h-3.3c-1.2-1.2-2.1-2.1-3.6-3c-0.5-0.2-1.6,0.7-2.6,0.2c-2.8-1.2-5.1-1.3-7.8-2.1c-0.2-0.5-0.8-0.8-0.8-2.1c0-3,7.1-9.1,8.7-11.7
		c2-3.3,1.8-8.2,3.5-11.4c1.5-2.8,5.1-4.3,9.1-6.9c0.7,2.8,1.2,6.4,1.2,7.8C244.3,246.2,244.3,248.9,243.9,250.4z M466,288.8
		c-1.3,0.5-2,2.6-3.3,3.3c-4.9,2.5-10.6,5.6-16.5,7.9c-4.9,2-14.5,4-15.8,3.8h-5.3c-0.7-0.7-0.7-0.3-0.7-1.5c0-1.3,1.5-2.3,2-3.5
		c1-2.8,2.8-9.2,5.1-11.4c2.5-2.5,4.1-5.3,4.6-7.8c0.3-1,1.5-2.8,2.6-3.6c2.1-0.2,5.3-0.7,6.6-0.7s16,5.3,17.3,5.3s1.3-1,2.6-1
		c1.3,0,2.8,1.6,4,1.6c2.1,0.2,5.6-1,8.1,1.6C475,286.3,469.3,287.5,466,288.8z M521.9,258.9c-1.3-0.5-2.3-0.5-3.3-1
		c-1.8,1.5-2.6,6.6-4,9.4c0,0-0.5,0-1.2,0.7c-9.6-7.9-18.8-9.4-28.2-10.1c-1.3,0-2.6-2-3.6-2.3c-3.1-0.8-9.1-1.6-10.4-1.6h-7.8
		c-2.8,0-5.6-1-5.6-3.6c0-1.3,1.6-3,2.3-4c5.6-1.6,5.4-5.9,10.4-5.9c1.3,0,5.6,2,8.9,2.1c5.8,0.3,9.1-1,10.4-1s4.5,1.5,5.8,1.5
		c1.3,0,1.8-1.5,3.1-1.5s1.3,1,2.6,1s1.8-1,3.1-1s5.8,2,8.9,3c3,1,6.1,0.7,9.6,0.3c0.2,0.7,0.7,0.7,0.7,2
		C523.7,250.5,520.6,250.9,521.9,258.9z M560.2,288.3c0,1.3-0.2,2-1.2,3c-4.3,1.3-12.4,4.9-13.7,4.9c-1.3,0-1.6-0.5-2.3-0.5
		c0,0-0.7,0-0.7-1.3s1.3-5.8,1.6-8.9c0.2-1.2,2.1-2.1,2.3-3.1c0.3-2.1,0.2-4.1,0.3-6.3c0.5-0.7,1.5-1.6,1.8-2.1
		c0.2-1-0.3-2.8-0.3-4.1c0-2.5,2.5-7.4,4.6-9.1c0.3-1.6,2-5.3,3-6.9c0.7,0,1.2,0.5,2,0.7c-0.8,2.3,2.6,4.3,2.6,6.4
		c0,1.3-1,1.8-1,3.1s1.6,2.1,1.6,3.5c0,1.3-2.6,9.1-2.6,10.4C558.2,279.1,560.2,287,560.2,288.3z"/>
	<path d="M295.6,103.9c3.5,0,5.9,5.1,5.9,6.6c0,1.3-1.2,5.1-2.3,6.9c-1,1.3-3.5,2.8-4.8,2.8c-1.3,0-1.2-0.5-1.6-1
		c-1.5-0.2-3.1,0.3-4.8,0.2c-0.7-1-2.8-2.3-2.8-3.6c0-1.3,1.2-1.8,2-2.8c0.2-1-0.3-2-0.3-3.3C287,105,292.8,103.9,295.6,103.9z"/>
	<path d="M331.2,101.7c1.3,0,3.3,0.7,4.8,1.2c0.7,0.2,5.4,6.4,5.4,8.4c0,1.3-0.5,2.1-0.8,3.3c-2,1.6-4.1,4.3-5.4,4.3
		s-1.5-1.5-2.8-1.5s-1.8,1-3.1,1c-1.3,0-3.1-1.2-4.3-2.3c-1-1-2.1-4.1-2.1-5.4c0-1.3,0.5-2.8,1.3-3.5c1.8-1.3,4-3.3,5.3-4.8
		C329.5,102.2,329.9,101.7,331.2,101.7z"/>
</g>
</svg>
